<?xml version="1.0" encoding="UTF-8" standalone="no"?>
<svg
   version="1.1"
   x="0px"
   y="0px"
   viewBox="0 0 100 125"
   enable-background="new 0 0 100 100"
   xml:space="preserve"
   id="svg2"
   sodipodi:docname="key-a.svg"
   inkscape:version="1.4 (86a8ad7, 2024-10-11)"
   xmlns:inkscape="http://www.inkscape.org/namespaces/inkscape"
   xmlns:sodipodi="http://sodipodi.sourceforge.net/DTD/sodipodi-0.dtd"
   xmlns="http://www.w3.org/2000/svg"
   xmlns:svg="http://www.w3.org/2000/svg"><defs
     id="defs2"><rect
       x="28.50062"
       y="48.327138"
       width="81.319703"
       height="67.069393"
       id="rect6" /></defs><sodipodi:namedview
     id="namedview2"
     pagecolor="#ffffff"
     bordercolor="#000000"
     borderopacity="0.25"
     inkscape:showpageshadow="2"
     inkscape:pageopacity="0.0"
     inkscape:pagecheckerboard="0"
     inkscape:deskcolor="#d1d1d1"
     inkscape:zoom="6.456"
     inkscape:cx="49.953532"
     inkscape:cy="75.356258"
     inkscape:window-width="1920"
     inkscape:window-height="1009"
     inkscape:window-x="-8"
     inkscape:window-y="-8"
     inkscape:window-maximized="1"
     inkscape:current-layer="svg2" /><g
     id="g1"
     transform="matrix(0.989352,0,0,0.95869475,0.06771063,16.625361)"><path
       d="M 80.845,5 H 19.155 C 12.1,5 6.359,10.74 6.359,17.795 V 82.204 C 6.359,89.26 12.1,95 19.155,95 H 80.844 C 87.9,95 93.64,89.26 93.64,82.204 V 17.795 C 93.641,10.74 87.9,5 80.845,5 Z m -9.724327,5.469432 c 8.559336,-0.06186 11.583654,3.219949 11.484988,13.015207 l -0.469685,46.628885 c -0.113122,11.230384 -0.583642,13.342344 -12.111235,13.342344 -12.378667,0 -21.184191,0.634969 -37.512124,0 C 20.048654,82.971163 16.072264,80.5783 16.334777,65.266476 L 17.117586,19.607 c 0.08484,-4.948226 4.340245,-8.778667 9.289124,-8.814432 z M 8.359,17.795 C 8.359,11.843 13.203,7 19.155,7 H 73.709 L 68.006,8.631 24.997654,8.7925683 C 18.945694,8.8153035 14.863075,13.716871 14.804463,19.768568 L 14.334777,68.26341 8.359,79.676 Z"
       id="path1"
       sodipodi:nodetypes="ssssssscssssssssssssccssccs" /></g><text
     xml:space="preserve"
     id="text6"
     style="font-size:53.3333px;text-align:start;writing-mode:lr-tb;direction:ltr;white-space:pre;shape-inside:url(#rect6);fill:#000000"
     transform="translate(4.8017348,-16.728625)"><tspan
       x="28.5"
       y="95.513644"
       id="tspan1">a</tspan></text><path
     style="fill:#666666;stroke-width:1"
     d="M 37.561958,96.728795 C 27.74825,96.477536 24.612316,96.07349 21.814522,94.699834 c -2.792698,-1.371154 -4.335651,-3.77795 -5.10225,-7.958818 -0.420419,-2.292875 -0.420149,-8.086179 0.0014,-30.901487 0.330552,-17.888619 0.432207,-21.444771 0.635024,-22.214768 0.752351,-2.856318 3.225722,-5.301029 6.267802,-6.195176 0.465863,-0.13693 1.406848,-0.284232 2.091079,-0.327338 2.812706,-0.177201 46.027947,-0.392517 47.402669,-0.236179 2.852921,0.324442 4.452586,0.977112 5.89909,2.406852 1.599142,1.580608 2.409917,3.849249 2.630223,7.35967 0.142823,2.275786 -0.368271,49.507241 -0.56234,51.967162 -0.324642,4.115002 -1.097647,5.782605 -3.145232,6.785209 -2.013394,0.985863 -3.965783,1.145515 -15.432028,1.261921 -4.642968,0.04714 -10.985905,0.114741 -14.095415,0.150234 -3.109511,0.03549 -7.988693,0.0047 -10.842627,-0.06832 z M 50.185874,79.168126 c 1.686649,-0.460872 3.107526,-1.272683 4.324101,-2.470555 0.619458,-0.609935 1.274368,-1.318079 1.455355,-1.573655 l 0.329069,-0.464684 0.0049,2.129801 0.0049,2.129802 h 2.478315 2.478315 v -8.735138 c 0,-4.997061 -0.06979,-9.42158 -0.163089,-10.339219 -0.498556,-4.90364 -2.276804,-7.924329 -5.645462,-9.589876 -1.801169,-0.890544 -3.32214,-1.23599 -5.902521,-1.340593 -3.254638,-0.13194 -6.846371,0.442199 -9.935459,1.588181 l -1.122986,0.416602 v 2.228026 c 0,1.225416 0.061,2.228027 0.135558,2.228027 0.07456,0 0.663838,-0.240745 1.309513,-0.534989 4.936201,-2.2495 10.681053,-2.370982 13.705714,-0.289828 1.520589,1.046261 2.382347,2.63331 2.603857,4.795376 l 0.101025,0.986071 -4.319718,4.64e-4 c -6.024265,6.2e-4 -8.11534,0.303004 -10.726203,1.551142 -1.532121,0.732438 -3.142189,2.229136 -3.804946,3.537023 -1.376292,2.715983 -1.366546,7.072108 0.02165,9.676659 0.584914,1.097421 2.242581,2.71725 3.40566,3.327926 1.743951,0.91566 2.87384,1.122147 5.777306,1.055807 1.722603,-0.03936 2.85873,-0.141181 3.485131,-0.312342 z"
     id="path2" /><path
     style="fill:#666666;stroke-width:1"
     d="M 34.541512,96.570428 C 25.172386,96.185852 22.177523,95.462354 19.623132,92.966451 18.097285,91.475542 16.962736,88.597969 16.64951,85.424411 16.46078,83.512229 16.460191,73.998076 16.648163,63.66171 16.986272,45.069467 17.13979,38.137025 17.263054,35.89498 c 0.123782,-2.251467 0.155573,-2.417375 0.667818,-3.48513 0.924373,-1.926822 2.331216,-3.355524 4.21962,-4.285182 1.970827,-0.970235 1.971072,-0.970254 14.636993,-1.102874 6.346809,-0.06646 17.073669,-0.123493 23.837467,-0.126751 13.124975,-0.0063 13.753333,0.02435 15.742409,0.768563 2.020426,0.755939 3.761659,2.672859 4.472839,4.924142 0.74303,2.352103 0.764126,2.93483 0.65673,18.140257 -0.139963,19.816532 -0.386747,36.489898 -0.568756,38.426662 -0.347362,3.696304 -1.215448,5.338569 -3.306575,6.255452 -1.519152,0.666092 -3.944339,0.983287 -7.918997,1.035736 -1.391894,0.01837 -1.750588,0.05465 -1.16171,0.117497 1.336786,0.142672 -30.534348,0.149304 -33.99938,0.0071 z M 50.728005,79.097897 c 1.473998,-0.472446 2.70176,-1.272829 4.143432,-2.701122 l 1.277881,-1.266019 v 1.409994 c 0,0.775495 0.04357,1.627814 0.09681,1.894039 l 0.09681,0.484046 h 2.458953 2.458953 V 69.47026 c 0,-5.196716 -0.05571,-9.448575 -0.123792,-9.448575 -0.06809,0 -0.09793,-0.226533 -0.06632,-0.503407 0.08187,-0.717127 -0.482045,-3.14571 -1.040232,-4.479898 -1.394313,-3.332705 -4.424031,-5.495319 -8.428555,-6.016311 -0.693646,-0.09024 -2.411269,-0.134581 -3.816938,-0.09853 -2.943579,0.0755 -4.871279,0.405596 -7.551115,1.293054 l -1.742565,0.577071 v 2.290589 c 0,1.695867 0.04893,2.29059 0.188474,2.29059 0.103662,0 0.957519,-0.311025 1.89746,-0.691168 2.864535,-1.158511 4.072663,-1.395348 7.130299,-1.397799 2.299132,-0.0018 2.773129,0.0419 3.736066,0.344746 2.871002,0.902954 4.348152,2.771126 4.777794,6.042548 l 0.08646,0.658303 -3.603132,0.0037 c -6.576153,0.0067 -7.915897,0.134323 -10.23158,0.97487 -1.433716,0.520412 -2.628962,1.268451 -3.653911,2.286786 -1.679178,1.668339 -2.362444,3.616854 -2.358332,6.725396 0.0042,3.16242 0.674652,4.914979 2.568547,6.713992 1.244216,1.181885 2.506007,1.913053 3.919982,2.27151 1.400316,0.354993 6.440594,0.219057 7.778556,-0.209786 z"
     id="path3" /><path
     style="fill:#666666;stroke-width:1"
     d="m 46.095576,75.342801 c -2.083469,-0.362925 -3.691604,-1.593886 -4.343297,-3.324613 -0.293892,-0.780503 -0.337395,-1.146731 -0.284257,-2.393033 0.05159,-1.210085 0.135626,-1.61288 0.473012,-2.267325 0.752504,-1.459672 2.064335,-2.268824 4.527367,-2.79253 0.742074,-0.157785 2.473037,-0.257203 5.48474,-0.315019 l 4.400477,-0.08447 -0.09844,1.606688 c -0.192389,3.140061 -1.025849,5.348651 -2.680246,7.102399 -1.086574,1.151826 -2.530523,2.014409 -3.853742,2.302138 -1.187204,0.258153 -2.698564,0.327256 -3.625614,0.16577 z"
     id="path4" /><path
     style="fill:#999999;stroke-width:1"
     d="m 8.4418169,62.563501 c -5.61e-5,-29.414302 0.00654,-30.089303 0.3053949,-31.257819 0.8477767,-3.314776 3.4161832,-6.088913 6.7777472,-7.320648 l 1.203666,-0.441044 27.648698,-0.02843 27.648699,-0.02843 -2.323979,0.661043 -2.323979,0.661044 -21.994484,0.09933 c -21.313386,0.09625 -22.031965,0.108924 -23.204824,0.409124 -4.053343,1.037476 -7.030131,4.630891 -7.450721,8.9941 -0.05324,0.55232 -0.202813,11.516558 -0.332383,24.364975 L 14.160071,82.0375 11.300972,87.332257 8.4418741,92.627014 Z"
     id="path5" /><path
     style="fill:#999999;stroke-width:1"
     d="m 34.464064,96.570043 c -3.895548,-0.157266 -6.957377,-0.409846 -8.596654,-0.709168 -5.271543,-0.962551 -7.728266,-3.271806 -8.930206,-8.39416 -0.276888,-1.180025 -0.325611,-2.037578 -0.396642,-6.981089 -0.09972,-6.940042 0.417093,-38.926957 0.71908,-44.505945 0.122766,-2.268015 0.165225,-2.505708 0.621925,-3.481653 1.251698,-2.674818 3.676979,-4.586774 6.575195,-5.183517 0.972446,-0.200226 19.170326,-0.41128 36.16819,-0.419468 13.125297,-0.0063 13.753296,0.02434 15.742704,0.768674 2.720679,1.017936 4.501503,3.616836 5.016754,7.321351 0.212591,1.528482 0.215595,10.460823 0.0097,28.754089 -0.187734,16.677118 -0.398138,25.769443 -0.623683,26.951673 -0.30741,1.611328 -0.76596,2.742971 -1.406202,3.470324 -0.677677,0.769881 -2.017596,1.489207 -3.310909,1.777438 -1.111669,0.247749 -3.883162,0.479526 -6.040893,0.505192 -1.100134,0.01309 -1.605868,0.06055 -1.239157,0.116301 0.957779,0.145604 -30.721349,0.154799 -34.30917,0.01 z M 50.263321,79.226866 c 1.464483,-0.354329 2.93831,-1.244126 4.442322,-2.68197 l 1.443675,-1.380162 v 1.158406 c 0,0.637123 0.04433,1.481795 0.0985,1.877051 l 0.0985,0.718644 h 2.45726 2.457262 v -9.361986 c 0,-5.149092 -0.06036,-9.399287 -0.134122,-9.444879 -0.07377,-0.04559 -0.102466,-0.248488 -0.06378,-0.450884 0.109639,-0.573541 -0.397117,-2.994021 -0.896577,-4.282427 -1.07039,-2.761181 -3.051893,-4.66751 -5.936493,-5.71128 -1.797339,-0.650355 -3.312844,-0.822238 -6.469582,-0.733762 -3.002967,0.08417 -4.496851,0.339503 -7.448956,1.27318 l -1.820012,0.575624 v 2.296211 c 0,1.566374 0.05414,2.296213 0.170342,2.296213 0.09369,0 0.947547,-0.310887 1.89746,-0.690861 2.8821,-1.152863 4.091897,-1.388953 7.148431,-1.395003 2.296313,-0.0045 2.772754,0.03869 3.723905,0.337949 2.887517,0.908494 4.359171,2.766128 4.789955,6.046242 l 0.08646,0.658303 -3.603132,0.0041 c -4.846709,0.0055 -6.635347,0.08555 -8.027863,0.359284 -1.441544,0.283372 -3.396581,1.027544 -4.325616,1.646518 -1.030917,0.686854 -2.379529,2.079012 -2.848265,2.940234 -1.347043,2.474964 -1.388335,7.216611 -0.08526,9.791056 0.186752,0.36896 0.87584,1.201179 1.531306,1.849375 1.40552,1.389928 3.10151,2.332004 4.256395,2.36431 0.38792,0.01084 0.705736,0.08121 0.706257,0.156345 0.0012,0.184064 5.466361,-0.0016 6.351626,-0.215821 z"
     id="path6" /><path
     style="fill:#b3b3b3;stroke-width:1"
     d="m 45.712165,75.194339 c -0.930212,-0.23442 -2.378693,-1.067763 -2.912305,-1.675514 -0.26526,-0.302114 -0.653699,-0.923704 -0.863199,-1.381311 -0.344621,-0.752751 -0.375509,-0.98952 -0.324241,-2.485383 0.05014,-1.462982 0.105228,-1.736213 0.478379,-2.372794 0.741878,-1.265614 1.801183,-1.953141 3.809282,-2.472359 0.962596,-0.248891 2.052151,-0.335169 5.744625,-0.4549 2.5062,-0.08127 4.579242,-0.125238 4.606762,-0.09772 0.108929,0.108929 -0.2839,3.490335 -0.506977,4.363981 -0.765383,2.997501 -2.858069,5.387766 -5.498218,6.280062 -1.126741,0.380806 -3.565659,0.539992 -4.534108,0.295938 z"
     id="path7" /><path
     style="fill:#b3b3b3;stroke-width:1"
     d="M 34.696406,96.5496 C 34.100062,96.49203 32.322646,96.365294 30.746592,96.267968 22.240423,95.742681 19.161389,94.037616 17.43984,88.899136 17.182236,88.13024 16.900465,86.877048 16.813681,86.114264 c -0.162824,-1.431138 -0.241905,-21.10818 -0.08546,-21.264623 0.04729,-0.04728 0.08998,-2.041627 0.09488,-4.43187 0.01055,-5.147153 0.09859,-10.283129 0.312153,-18.208973 0.08608,-3.194703 0.126599,-5.965381 0.09004,-6.157063 -0.03656,-0.191682 -0.0156,-0.348513 0.04658,-0.348513 0.06217,0 0.14568,-0.50852 0.185567,-1.130044 0.154108,-2.401327 2.098509,-5.029239 4.693441,-6.343316 1.71509,-0.868523 2.025993,-0.905657 8.363376,-0.998916 3.237299,-0.04764 5.9557,-0.129965 6.040893,-0.182945 0.156736,-0.09747 37.40052,0.05675 38.258983,0.158424 0.255577,0.03027 0.499536,0.09704 0.542132,0.148368 0.0426,0.05133 0.44945,0.215779 0.904118,0.365437 1.743774,0.573978 3.438681,2.302613 4.267787,4.352716 0.862537,2.132766 0.864805,2.175976 0.854328,16.274271 -0.01256,16.904535 -0.239512,33.987416 -0.53246,40.07912 -0.194988,4.054657 -0.97618,5.722015 -3.211626,6.854801 -2.09794,1.063106 -4.390197,1.182243 -24.741875,1.285933 -9.413723,0.04796 -17.603779,0.0401 -18.200124,-0.01747 z M 49.484112,79.390923 c 0.636337,-0.07364 1.181035,-0.206067 1.210442,-0.294286 0.02941,-0.08822 0.139679,-0.127315 0.245053,-0.08688 0.474488,0.182079 2.559711,-1.198581 4.319067,-2.859728 l 0.890644,-0.840927 v 1.559856 c 0,0.857921 0.04231,1.670111 0.09402,1.804866 0.08028,0.209212 0.4541,0.245011 2.558449,0.245011 h 2.46443 l -0.0091,-9.177509 c -0.0087,-8.718341 -0.133586,-12.060226 -0.454811,-12.16924 -0.07898,-0.0268 -0.108259,-0.140811 -0.06507,-0.253355 0.1882,-0.490455 -1.273727,-3.957517 -1.668738,-3.957517 -0.08213,0 -0.109969,-0.06367 -0.06188,-0.14148 0.144554,-0.233893 -1.389319,-1.787621 -2.441611,-2.473216 -1.109142,-0.722635 -3.237582,-1.552695 -4.194181,-1.635671 -0.349783,-0.03034 -0.763886,-0.106843 -0.92023,-0.170007 -0.156345,-0.06316 -1.724653,-0.07444 -3.48513,-0.02507 -3.164192,0.08875 -5.778836,0.451363 -6.285292,0.871685 -0.108277,0.08986 -0.230023,0.130231 -0.270545,0.08971 -0.04052,-0.04052 -0.696284,0.119541 -1.457247,0.355699 l -1.383571,0.429377 -0.02844,2.356301 c -0.02352,1.948807 0.0097,2.356301 0.192159,2.356301 0.121331,0 0.953186,-0.27858 1.848567,-0.619066 2.969711,-1.129292 3.603984,-1.259383 6.584372,-1.350472 2.193437,-0.06704 2.89666,-0.0351 3.68547,0.16739 2.206119,0.566313 3.703289,1.699253 4.511142,3.413671 0.43882,0.931261 0.787278,2.237761 0.787278,2.951798 v 0.365917 l -5.382589,0.06573 c -5.0809,0.06205 -7.296063,0.242046 -7.089621,0.576077 0.03686,0.05963 -0.152585,0.108423 -0.420979,0.108423 -0.268394,0 -0.51524,0.08175 -0.548547,0.181674 -0.03331,0.09992 -0.124991,0.141856 -0.203741,0.09318 -0.07875,-0.04867 -0.665989,0.162971 -1.304978,0.470311 -1.331033,0.640202 -3.226406,2.380353 -3.784751,3.4748 -1.318155,2.583797 -1.288463,7.699774 0.05802,9.997377 0.45375,0.774265 2.827297,3.077167 3.037602,2.947191 0.08256,-0.05103 0.150116,-0.0151 0.150116,0.07983 0,0.240742 1.563829,0.931792 2.444311,1.080132 0.999422,0.168378 4.964528,0.175901 6.37995,0.01211 z"
     id="path8" /><path
     style="fill:#b3b3b3;stroke-width:1"
     d="m 8.4982958,62.383829 c 0.089555,-24.85979 0.1442825,-30.030777 0.3270406,-30.900688 0.3468881,-1.651154 1.3471086,-3.406922 2.7138336,-4.76381 1.27199,-1.262835 2.313231,-1.945861 4.03376,-2.646035 l 1.110346,-0.451859 27.206688,0.01057 27.20669,0.01057 -1.733053,0.508993 -1.733053,0.508993 -6.786154,0.106118 c -3.732383,0.05837 -12.118403,0.102834 -18.635596,0.09882 -6.517193,-0.004 -13.66171,0.05231 -15.876704,0.125165 -3.968983,0.130549 -4.0445,0.139241 -5.218554,0.600657 -2.397628,0.942295 -4.15699,2.568516 -5.325974,4.922928 -1.102904,2.221321 -1.137007,2.529048 -1.261673,11.384759 -0.144845,10.289041 -0.263298,21.500642 -0.328119,31.056381 -0.0289,4.259604 -0.0986,8.095361 -0.154895,8.523904 -0.07938,0.604231 -0.70624,1.899668 -2.792021,5.769826 -1.4793143,2.744862 -2.7280142,4.990657 -2.7748887,4.990657 -0.046875,0 -0.036828,-13.435177 0.022327,-29.855948 z"
     id="path9" /><path
     style="fill:#cccccc;stroke-width:1"
     d="M 8.5642715,90.820829 C 8.497518,89.751428 8.5471732,68.407734 8.667816,46.313507 8.718705,36.993829 8.8010288,32.090602 8.9161772,31.521066 c 0.094732,-0.468557 0.1835734,-0.956475 0.1974245,-1.084263 0.013851,-0.127788 0.094886,-0.314667 0.1800786,-0.415287 0.085192,-0.10062 0.3988538,-0.620777 0.697026,-1.155904 0.6955367,-1.248272 2.6018497,-3.154586 3.8501227,-3.850123 0.535127,-0.298172 1.064412,-0.62594 1.176188,-0.728373 0.111775,-0.102434 0.236512,-0.152959 0.277193,-0.112279 0.04068,0.04068 0.389249,-0.06118 0.774598,-0.226362 0.687067,-0.294512 1.21763,-0.298542 27.399556,-0.208118 l 26.698922,0.09221 -1.16171,0.358245 c -0.803881,0.247899 -1.591103,0.365285 -2.555762,0.3811 -0.976492,0.01601 -1.20847,0.05107 -0.774473,0.117047 0.340768,0.05181 -3.945942,0.08583 -9.526023,0.0756 -5.58008,-0.01022 -9.657682,0.02463 -9.061338,0.07745 0.596345,0.05282 -3.690365,0.07901 -9.526022,0.0582 -9.32761,-0.03326 -14.027679,0.06251 -15.334573,0.31247 -0.815251,0.155925 -1.239157,0.306165 -1.239157,0.439181 0,0.07596 -0.05228,0.12153 -0.116171,0.101274 -0.207436,-0.06576 -1.122986,0.379479 -1.122986,0.54612 0,0.08906 -0.04372,0.118202 -0.09715,0.06477 -0.272416,-0.272417 -3.155638,2.395416 -3.155638,2.919898 0,0.122932 -0.06837,0.223513 -0.151944,0.223513 -0.08357,0 -0.195679,0.174256 -0.249134,0.387237 -0.05345,0.21298 -0.151924,0.387236 -0.218821,0.387236 -0.0669,0 -0.30224,0.451152 -0.522984,1.00256 -0.590498,1.475039 -0.688175,2.335265 -0.800733,7.051963 -0.09764,4.091723 -0.229069,14.208846 -0.311882,24.008674 -0.0342,4.046624 -0.105991,10.075899 -0.159544,13.398389 l -0.09737,6.040893 -1.525921,2.981722 c -0.839256,1.639947 -1.48878,2.981722 -1.443387,2.981722 0.04539,0 -0.0225,0.105036 -0.150881,0.233414 -0.128377,0.128377 -0.59785,0.912531 -1.0432727,1.742565 -1.2229309,2.278901 -1.1844612,2.245304 -1.2561378,1.097019 z"
     id="path10" /></svg>
