<?xml version="1.0" encoding="UTF-8" standalone="no"?>
<svg
   version="1.1"
   x="0px"
   y="0px"
   viewBox="0 0 100 125"
   enable-background="new 0 0 100 100"
   xml:space="preserve"
   id="svg2"
   sodipodi:docname="key-k.svg"
   inkscape:version="1.4 (86a8ad7, 2024-10-11)"
   xmlns:inkscape="http://www.inkscape.org/namespaces/inkscape"
   xmlns:sodipodi="http://sodipodi.sourceforge.net/DTD/sodipodi-0.dtd"
   xmlns="http://www.w3.org/2000/svg"
   xmlns:svg="http://www.w3.org/2000/svg"><defs
     id="defs2"><rect
       x="28.50062"
       y="48.327138"
       width="81.319703"
       height="67.069393"
       id="rect6" /></defs><sodipodi:namedview
     id="namedview2"
     pagecolor="#ffffff"
     bordercolor="#000000"
     borderopacity="0.25"
     inkscape:showpageshadow="2"
     inkscape:pageopacity="0.0"
     inkscape:pagecheckerboard="0"
     inkscape:deskcolor="#d1d1d1"
     inkscape:zoom="6.456"
     inkscape:cx="49.953532"
     inkscape:cy="75.356258"
     inkscape:window-width="1920"
     inkscape:window-height="1009"
     inkscape:window-x="-8"
     inkscape:window-y="-8"
     inkscape:window-maximized="1"
     inkscape:current-layer="svg2" /><g
     id="g1"
     transform="matrix(0.989352,0,0,0.95869475,0.06771063,16.625361)"><path
       d="M 80.845,5 H 19.155 C 12.1,5 6.359,10.74 6.359,17.795 V 82.204 C 6.359,89.26 12.1,95 19.155,95 H 80.844 C 87.9,95 93.64,89.26 93.64,82.204 V 17.795 C 93.641,10.74 87.9,5 80.845,5 Z m -9.724327,5.469432 c 8.559336,-0.06186 11.583654,3.219949 11.484988,13.015207 l -0.469685,46.628885 c -0.113122,11.230384 -0.583642,13.342344 -12.111235,13.342344 -12.378667,0 -21.184191,0.634969 -37.512124,0 C 20.048654,82.971163 16.072264,80.5783 16.334777,65.266476 L 17.117586,19.607 c 0.08484,-4.948226 4.340245,-8.778667 9.289124,-8.814432 z M 8.359,17.795 C 8.359,11.843 13.203,7 19.155,7 H 73.709 L 68.006,8.631 24.997654,8.7925683 C 18.945694,8.8153035 14.863075,13.716871 14.804463,19.768568 L 14.334777,68.26341 8.359,79.676 Z"
       id="path1"
       sodipodi:nodetypes="ssssssscssssssssssssccssccs" /></g><text
     xml:space="preserve"
     id="text6"
     style="font-size:53.3333px;text-align:start;writing-mode:lr-tb;direction:ltr;white-space:pre;shape-inside:url(#rect6);fill:#000000"
     transform="translate(3.4076828,-10.842627)"><tspan
       x="28.5"
       y="95.513644"
       id="tspan1">k</tspan></text><path
     style="fill:#b3b3b3;stroke-width:1"
     d="M 37.561958,96.728795 C 27.74825,96.477536 24.612316,96.07349 21.814522,94.699834 c -2.792698,-1.371154 -4.335651,-3.77795 -5.10225,-7.958818 -0.420419,-2.292875 -0.420149,-8.086179 0.0014,-30.901487 0.330552,-17.888619 0.432207,-21.444771 0.635024,-22.214768 0.752351,-2.856318 3.225722,-5.301029 6.267802,-6.195176 0.465863,-0.13693 1.406848,-0.284232 2.091079,-0.327338 2.812706,-0.177201 46.027947,-0.392517 47.402669,-0.236179 2.852921,0.324442 4.452586,0.977112 5.89909,2.406852 1.599142,1.580608 2.409917,3.849249 2.630223,7.35967 0.142823,2.275786 -0.368271,49.507241 -0.56234,51.967162 -0.324642,4.115002 -1.097647,5.782605 -3.145232,6.785209 -2.013394,0.985863 -3.965783,1.145515 -15.432028,1.261921 -4.642968,0.04714 -10.985905,0.114741 -14.095415,0.150234 -3.109511,0.03549 -7.988693,0.0047 -10.842627,-0.06832 z m 4.064422,-19.000488 0.04029,-7.076527 7.357497,7.07408 7.357496,7.07408 3.136618,0.0024 c 1.725139,0.0014 3.136617,-0.05538 3.136617,-0.126055 0,-0.07068 -3.572259,-3.567443 -7.938352,-7.770595 -4.366094,-4.20315 -7.938352,-7.690117 -7.938352,-7.748815 0,-0.0587 3.415427,-3.118262 7.589839,-6.799033 4.174411,-3.68077 7.613073,-6.757725 7.64147,-6.837677 0.03106,-0.08743 -1.183129,-0.145367 -3.046746,-0.145367 H 55.86438 L 48.765525,61.624903 41.66667,67.875009 41.62699,55.971248 41.58731,44.067487 H 39.109949 36.63259 v 20.368649 20.36865 h 2.476752 2.476752 z"
     id="path2" /><path
     style="fill:#b3b3b3;stroke-width:1"
     d="m 8.4418169,62.563501 c -5.61e-5,-29.414302 0.00654,-30.089303 0.3053949,-31.257819 0.8477767,-3.314776 3.4161832,-6.088913 6.7777472,-7.320648 l 1.203666,-0.441044 27.648698,-0.02843 27.648699,-0.02843 -2.323979,0.661043 -2.323979,0.661044 -21.994484,0.09933 c -21.313386,0.09625 -22.031965,0.108924 -23.204824,0.409124 -4.053343,1.037476 -7.030131,4.630891 -7.450721,8.9941 -0.05324,0.55232 -0.202813,11.516558 -0.332383,24.364975 L 14.160071,82.0375 11.300972,87.332257 8.4418741,92.627014 Z"
     id="path3" /></svg>
