<?xml version="1.0" encoding="UTF-8" standalone="no"?>
<svg
   version="1.1"
   x="0px"
   y="0px"
   viewBox="0 0 100 125"
   enable-background="new 0 0 100 100"
   xml:space="preserve"
   id="svg2"
   sodipodi:docname="key-o.svg"
   inkscape:version="1.4 (86a8ad7, 2024-10-11)"
   xmlns:inkscape="http://www.inkscape.org/namespaces/inkscape"
   xmlns:sodipodi="http://sodipodi.sourceforge.net/DTD/sodipodi-0.dtd"
   xmlns="http://www.w3.org/2000/svg"
   xmlns:svg="http://www.w3.org/2000/svg"><defs
     id="defs2"><rect
       x="28.50062"
       y="48.327138"
       width="81.319703"
       height="67.069393"
       id="rect6" /></defs><sodipodi:namedview
     id="namedview2"
     pagecolor="#ffffff"
     bordercolor="#000000"
     borderopacity="0.25"
     inkscape:showpageshadow="2"
     inkscape:pageopacity="0.0"
     inkscape:pagecheckerboard="0"
     inkscape:deskcolor="#d1d1d1"
     inkscape:zoom="16"
     inkscape:cx="59.40625"
     inkscape:cy="60.78125"
     inkscape:window-width="1920"
     inkscape:window-height="1009"
     inkscape:window-x="-8"
     inkscape:window-y="-8"
     inkscape:window-maximized="1"
     inkscape:current-layer="svg2" /><g
     id="g1"
     transform="matrix(0.989352,0,0,0.95869475,0.06771063,16.625361)"><path
       d="M 80.845,5 H 19.155 C 12.1,5 6.359,10.74 6.359,17.795 V 82.204 C 6.359,89.26 12.1,95 19.155,95 H 80.844 C 87.9,95 93.64,89.26 93.64,82.204 V 17.795 C 93.641,10.74 87.9,5 80.845,5 Z m -9.724327,5.469432 c 8.559336,-0.06186 11.583654,3.219949 11.484988,13.015207 l -0.469685,46.628885 c -0.113122,11.230384 -0.583642,13.342344 -12.111235,13.342344 -12.378667,0 -21.184191,0.634969 -37.512124,0 C 20.048654,82.971163 16.072264,80.5783 16.334777,65.266476 L 17.117586,19.607 c 0.08484,-4.948226 4.340245,-8.778667 9.289124,-8.814432 z M 8.359,17.795 C 8.359,11.843 13.203,7 19.155,7 H 73.709 L 68.006,8.631 24.997654,8.7925683 C 18.945694,8.8153035 14.863075,13.716871 14.804463,19.768568 L 14.334777,68.26341 8.359,79.676 Z"
       id="path1"
       sodipodi:nodetypes="ssssssscssssssssssssccssccs" /></g><text
     xml:space="preserve"
     id="text6"
     style="font-size:53.3333px;text-align:start;writing-mode:lr-tb;direction:ltr;white-space:pre;shape-inside:url(#rect6);display:inline;fill:#000000;stroke-width:0.677763"
     transform="matrix(1.601739,0,0,1.359103,-22.018197,-43.709217)"><tspan
       x="28.5"
       y="95.513644"
       id="tspan1">o</tspan></text><path
     style="fill:#b3b3b3;stroke-width:1"
     d="M 37.561958,96.728795 C 27.74825,96.477536 24.612316,96.07349 21.814522,94.699834 c -2.792698,-1.371154 -4.335651,-3.77795 -5.10225,-7.958818 -0.420419,-2.292875 -0.420149,-8.086179 0.0014,-30.901487 0.330552,-17.888619 0.432207,-21.444771 0.635024,-22.214768 0.752351,-2.856318 3.225722,-5.301029 6.267802,-6.195176 0.465863,-0.13693 1.406848,-0.284232 2.091079,-0.327338 2.812706,-0.177201 46.027947,-0.392517 47.402669,-0.236179 2.852921,0.324442 4.452586,0.977112 5.89909,2.406852 1.599142,1.580608 2.409917,3.849249 2.630223,7.35967 0.142823,2.275786 -0.368271,49.507241 -0.56234,51.967162 -0.324642,4.115002 -1.097647,5.782605 -3.145232,6.785209 -2.013394,0.985863 -3.965783,1.145515 -15.432028,1.261921 -4.642968,0.04714 -10.985905,0.114741 -14.095415,0.150234 -3.109511,0.03549 -7.988693,0.0047 -10.842627,-0.06832 z M 55.54561,86.691098 C 64.079523,84.904597 69.479064,79.401231 70.927162,71.013781 71.449418,67.988855 71.38048,63.554569 70.76711,60.718711 69.007169,52.581784 63.509122,47.410993 54.950706,45.843735 c -1.867097,-0.341912 -6.51988,-0.471201 -8.559752,-0.237855 -5.692509,0.651182 -9.801803,2.561375 -13.0886,6.084201 -3.534338,3.788142 -5.253131,9.22313 -4.98611,15.766548 0.11213,2.747772 0.433934,4.695571 1.117072,6.761357 2.337195,7.067598 7.741545,11.422926 15.718481,12.667414 2.202051,0.343542 8.375909,0.228129 10.393813,-0.194302 z"
     id="path2" /><path
     style="fill:#b3b3b3;stroke-width:1"
     d="m 8.4418169,62.563501 c -5.61e-5,-29.414302 0.00654,-30.089303 0.3053949,-31.257819 0.8477767,-3.314776 3.4161832,-6.088913 6.7777472,-7.320648 l 1.203666,-0.441044 27.648698,-0.02843 27.648699,-0.02843 -2.323979,0.661043 -2.323979,0.661044 -21.994484,0.09933 c -21.313386,0.09625 -22.031965,0.108924 -23.204824,0.409124 -4.053343,1.037476 -7.030131,4.630891 -7.450721,8.9941 -0.05324,0.55232 -0.202813,11.516558 -0.332383,24.364975 L 14.160071,82.0375 11.300972,87.332257 8.4418741,92.627014 Z"
     id="path3" /><path
     style="fill:#cccccc;stroke-width:1"
     d="m 48.017348,81.447638 c -4.946683,-0.617314 -8.527842,-3.386953 -10.29506,-7.962116 -0.801379,-2.074693 -1.131514,-4.079944 -1.145576,-6.958261 -0.01826,-3.7367 0.463663,-6.104467 1.765469,-8.674101 1.961307,-3.871426 5.441065,-6.207033 9.907509,-6.649901 5.774111,-0.57253 10.486026,1.866981 12.93167,6.695148 1.256326,2.480225 1.783676,4.958583 1.782701,8.378078 -0.0011,3.636907 -0.674958,6.608307 -2.059317,9.079773 -0.782229,1.396494 -3.01083,3.698934 -4.327729,4.471115 -2.241482,1.314323 -5.725934,1.973897 -8.559667,1.620265 z"
     id="path4" /><path
     style="fill:#cccccc;stroke-width:1"
     d="M 8.496745,62.422553 C 8.6052096,29.123291 8.520534,31.451923 9.7062797,29.159721 10.909536,26.833671 13.069752,25.007813 15.876704,23.944357 l 0.851921,-0.322763 27.184014,0.01049 27.184015,0.01049 -1.781288,0.528007 -1.781289,0.528006 -22.149938,0.155631 c -12.849508,0.09028 -22.448385,0.217929 -22.86072,0.304001 -1.012275,0.211306 -2.786113,0.946851 -2.881238,1.194743 -0.04426,0.115331 -0.130102,0.179015 -0.190768,0.141522 -0.190736,-0.117882 -1.832825,1.270285 -2.508763,2.120823 -0.86175,1.084346 -1.787461,3.040571 -2.071375,4.377255 -0.174184,0.820071 -0.2547,2.801508 -0.330443,8.13197 -0.149528,10.523115 -0.264702,21.608639 -0.313813,30.204461 -0.02409,4.217008 -0.07942,8.366912 -0.122938,9.222008 l -0.07913,1.554722 -2.69268,4.993927 c -1.4809739,2.746661 -2.746729,5.044247 -2.8127889,5.10575 -0.06606,0.0615 -0.07629,-13.340781 -0.022734,-29.78285 z"
     id="path5" /><path
     style="fill:#b3b3b3;stroke-width:1"
     d="m 46.75438,81.165999 c -4.234492,-0.969252 -7.283753,-3.573394 -8.894545,-7.596155 -0.881213,-2.200725 -1.13216,-3.787719 -1.138117,-7.197477 -0.0058,-3.34433 0.175013,-4.577716 1.009354,-6.88353 0.914633,-2.527712 2.713496,-4.851923 4.864963,-6.285749 1.021257,-0.680608 2.938992,-1.479492 3.933168,-1.638467 0.349924,-0.05596 0.636225,-0.146947 0.636225,-0.202204 0,-0.05526 0.270652,-0.07466 0.60145,-0.04311 0.330798,0.03155 0.638488,-0.0026 0.683757,-0.07582 0.133979,-0.216783 3.650841,0.06609 4.931591,0.396665 2.312518,0.596885 4.603717,2.040439 6.100627,3.84366 1.080899,1.302082 2.412562,3.99234 2.859599,5.777027 0.181383,0.724132 0.371095,2.100759 0.421581,3.059169 0.0508,0.964402 0.159153,1.742565 0.242635,1.742565 0.09654,0 0.09565,0.0697 -0.0025,0.193619 -0.08432,0.10649 -0.192974,0.995198 -0.241447,1.974907 -0.219811,4.442715 -1.965305,8.092083 -5.106958,10.677298 -1.140971,0.938888 -2.430444,1.58104 -4.091761,2.037679 -1.563243,0.429682 -5.357844,0.55223 -6.809651,0.219919 z"
     id="path6" /><path
     style="fill:#b3b3b3;stroke-width:1"
     d="m 46.203406,80.95267 c -4.28051,-1.193533 -7.288917,-4.178327 -8.685029,-8.616858 -0.498126,-1.583647 -0.729906,-3.501765 -0.730456,-6.044956 -5.47e-4,-2.526602 0.209594,-4.232856 0.721133,-5.855297 1.617928,-5.131562 5.400995,-8.386495 10.585742,-9.107922 1.14675,-0.159563 3.998796,0.06477 5.393688,0.424243 2.12905,0.548678 4.809586,2.311246 6.107007,4.015621 0.713637,0.93748 1.975688,3.373545 2.410562,4.652969 0.175899,0.517504 0.397441,1.563043 0.492316,2.32342 0.09488,0.760377 0.234805,1.865808 0.310954,2.456512 0.07615,0.590705 0.114529,1.113475 0.08529,1.16171 -0.02924,0.04824 -0.13334,0.97835 -0.231328,2.066917 -0.220478,2.449351 -0.602659,3.987952 -1.410131,5.676978 -1.287951,2.694061 -3.253905,4.812264 -5.475479,5.899512 -1.926008,0.942596 -2.744675,1.107983 -5.82414,1.176594 -2.301269,0.05127 -2.867647,0.01662 -3.750126,-0.229443 z"
     id="path7" /><path
     style="fill:#b3b3b3;stroke-width:1"
     d="m 37.707715,73.741965 c -0.848083,-2.135849 -1.264062,-4.580733 -1.263765,-7.427684 1.88e-4,-1.807204 0.166007,-3.412561 0.508903,-4.92689 0.02885,-0.127404 0.05245,-0.233047 0.05245,-0.234762 0,-0.0017 0.0196,-0.0031 0.04356,-0.0031 0.02396,0 0.04356,0.0013 0.04356,0.003 0,0.0016 -0.02177,0.09782 -0.04837,0.21374 -0.2213,0.964287 -0.360217,2.000062 -0.426022,3.17645 -0.04054,0.724682 -0.05543,1.609703 -0.04025,2.391993 0.01214,0.62567 0.01949,0.831137 0.04533,1.267393 0.129599,2.188359 0.509815,3.894949 1.279544,5.743204 0.0037,0.0089 -0.01017,0.0121 -0.05219,0.0121 h -0.05723 z"
     id="path8" /><path
     style="fill:#b3b3b3;stroke-width:1"
     d="m 37.837795,73.761327 c -0.641646,-1.573829 -1.006295,-3.123616 -1.161119,-4.934848 -0.03623,-0.423881 -0.07797,-1.173482 -0.07797,-1.400376 0,-0.05509 -0.0033,-0.100162 -0.0073,-0.100157 -0.004,5e-6 -0.0059,-0.108906 -0.0042,-0.242023 0.0017,-0.133117 -5.1e-4,-0.242029 -0.0048,-0.242026 -0.01555,1.1e-5 0.0037,-1.404596 0.02633,-1.926508 0.06071,-1.397236 0.208303,-2.547073 0.469408,-3.656966 l 0.02562,-0.108911 h 0.04275 c 0.02351,0 0.04275,0.0037 0.04275,0.0082 0,0.0045 -0.01709,0.07531 -0.03797,0.157315 -0.254004,0.997343 -0.372541,1.985668 -0.417301,3.479327 -0.01341,0.447592 -0.01901,1.907761 -0.0093,2.434751 0.04463,2.430256 0.247286,3.82357 0.787946,5.417263 0.120013,0.35376 0.275851,0.765555 0.425721,1.124952 0.0406,0.09736 0.07382,0.179039 0.07382,0.181517 0,0.0025 -0.02124,0.0045 -0.0472,0.0045 h -0.0472 z"
     id="path9" /><path
     style="fill:#b3b3b3;stroke-width:1"
     d="m 28.306658,65.166992 c 1.4e-4,-0.05549 0.01962,-0.488074 0.03135,-0.696289 0.0857,-1.520991 0.297388,-3.016142 0.618815,-4.370724 0.01193,-0.05028 0.02169,-0.09203 0.02169,-0.09277 0,-7.41e-4 0.013,-0.0013 0.02889,-0.0013 h 0.02889 l -0.003,0.0127 c -0.302095,1.2745 -0.499472,2.569526 -0.60533,3.971679 -0.02551,0.337912 -0.05383,0.843609 -0.06093,1.087891 -0.0012,0.04297 -0.0031,0.08208 -0.0041,0.08691 -0.0016,0.0081 -0.0039,0.0088 -0.02906,0.0088 -0.02337,0 -0.02727,-9.76e-4 -0.02725,-0.0068 z"
     id="path10" /><path
     style="fill:#b3b3b3;stroke-width:1"
     d="m 37.005863,61.146337 c -10e-6,-0.0059 0.06241,-0.252867 0.09326,-0.368993 0.249635,-0.939857 0.554264,-1.781405 0.948095,-2.619141 0.05324,-0.113239 0.208931,-0.426081 0.245439,-0.493164 l 0.0186,-0.03418 h 0.07185 0.07185 l -0.03331,0.06348 c -0.05045,0.09613 -0.187521,0.370035 -0.246791,0.493164 -0.409285,0.850258 -0.721408,1.668248 -0.957658,2.509766 -0.03154,0.112352 -0.09333,0.345436 -0.109797,0.414183 l -0.0089,0.03723 -0.04631,-1.21e-4 c -0.02547,-6.6e-5 -0.04631,-0.0011 -0.04631,-0.0022 z"
     id="path11" /><path
     style="fill:#b3b3b3;stroke-width:0.999998"
     d="m 37.175587,61.150926 c -0.0076,-0.0024 -0.02703,-0.0047 -0.04319,-0.005 -0.02526,-4.73e-4 -0.02897,-0.0019 -0.02649,-0.01022 0.01386,-0.04648 0.03617,-0.146645 0.03359,-0.150817 -0.0018,-0.0029 -3.18e-4,-0.0052 0.0033,-0.0052 0.0037,0 0.0053,-0.0046 0.0037,-0.01078 -0.0016,-0.0059 -9.09e-4,-0.01152 0.0014,-0.01243 0.0061,-0.0024 0.05627,-0.191799 0.05241,-0.198042 -0.0018,-0.0029 -9.01e-4,-0.0052 0.002,-0.0052 0.0061,0 0.01918,-0.04814 0.01491,-0.05505 -0.0016,-0.0026 -3.74e-4,-0.0056 0.0028,-0.0067 0.0031,-0.001 0.0063,-0.0093 0.0069,-0.01843 6.72e-4,-0.0091 0.0032,-0.01797 0.0056,-0.01974 0.0024,-0.0018 0.0049,-0.01047 0.0055,-0.01934 6.42e-4,-0.0089 0.0031,-0.01756 0.0055,-0.01933 0.0024,-0.0018 0.0049,-0.01047 0.0055,-0.01933 6.41e-4,-0.0089 0.0028,-0.01736 0.0047,-0.01888 0.0063,-0.0049 0.02748,-0.08291 0.02403,-0.08849 -0.0018,-0.003 -0.0011,-0.0054 0.0016,-0.0054 0.0062,0 0.01938,-0.04265 0.01523,-0.04936 -0.0017,-0.0027 -8.5e-4,-0.0058 0.0018,-0.0068 0.0066,-0.0025 0.04619,-0.130629 0.04233,-0.136872 -0.0017,-0.0027 -9.02e-4,-0.0057 0.0017,-0.0068 0.0067,-0.0026 0.041,-0.108245 0.03714,-0.114492 -0.0018,-0.0029 -0.0011,-0.006 0.0015,-0.007 0.0026,-10e-4 0.01786,-0.04163 0.03391,-0.09024 0.04583,-0.138866 0.1348,-0.390368 0.191278,-0.540736 0.0284,-0.0756 0.05043,-0.139405 0.04897,-0.141778 -0.0015,-0.0024 -3.77e-4,-0.0051 0.0024,-0.0062 0.0073,-0.0027 0.08422,-0.197643 0.08039,-0.203835 -0.0018,-0.0028 -8.61e-4,-0.0052 0.002,-0.0052 0.0063,0 0.05156,-0.110144 0.04778,-0.116267 -0.0015,-0.0024 -4.11e-4,-0.0052 0.0024,-0.0062 0.0028,-10e-4 0.03855,-0.08016 0.07952,-0.175867 0.11603,-0.271039 0.259779,-0.583846 0.363423,-0.790828 0.02425,-0.04843 0.04263,-0.09042 0.04084,-0.09332 -0.0018,-0.0029 -4.72e-4,-0.0053 0.0029,-0.0053 0.0034,0 0.0046,-0.0025 0.0028,-0.0055 -0.0019,-0.003 -6.35e-4,-0.0055 0.0028,-0.0055 0.0034,0 0.0048,-0.0023 0.0031,-0.0051 -0.0017,-0.0028 -7.66e-4,-0.0059 0.0021,-0.0069 0.0029,-10e-4 0.04357,-0.07653 0.09042,-0.167794 0.163692,-0.318886 0.323659,-0.603696 0.504858,-0.898862 l 0.06359,-0.103581 h 0.06849 c 0.03767,0 0.06849,0.0014 0.06849,0.0031 0,0.0017 -0.02282,0.0384 -0.05072,0.08148 -0.498008,0.769191 -0.923857,1.608817 -1.24021,2.445263 -0.07604,0.20105 -0.292628,0.816024 -0.315713,0.896423 -0.0029,0.0099 -0.02301,0.07276 -0.0448,0.139604 -0.07259,0.222719 -0.217988,0.715239 -0.229916,0.778824 -0.002,0.01069 -0.0052,0.01919 -0.0072,0.01888 -0.0019,-3.02e-4 -0.0097,-0.0025 -0.01734,-0.005 z"
     id="path12" /><path
     style="fill:#b3b3b3;stroke-width:0.999998"
     d="m 38.385402,57.496344 c 0,-0.0089 0.168166,-0.306246 0.266936,-0.472049 0.709911,-1.191719 1.643229,-2.297349 2.675652,-3.169641 1.911368,-1.614911 4.257684,-2.536439 7.042533,-2.765993 0.0949,-0.0078 0.268837,-0.02019 0.396367,-0.02818 l 0.05939,-0.0037 v 0.04728 0.04728 l -0.02348,0.003 c -0.01291,0.0016 -0.06325,0.0056 -0.111867,0.0089 -0.320229,0.02152 -0.736049,0.06602 -1.104854,0.118242 -0.07292,0.01033 -0.163657,0.02037 -0.201636,0.02233 -0.11445,0.0059 -0.186954,0.01926 -0.209923,0.03868 -0.0046,0.0039 -0.0406,0.01252 -0.0801,0.01925 -0.0395,0.0067 -0.152608,0.02829 -0.251354,0.0479 -1.282537,0.254719 -2.485482,0.684222 -3.568679,1.274172 -1.804883,0.983006 -3.287803,2.402688 -4.40114,4.213457 -0.09556,0.15542 -0.211032,0.35366 -0.31213,0.535854 l -0.03525,0.06353 -0.07023,0.0015 c -0.03863,8.51e-4 -0.07023,3.1e-5 -0.07023,-0.0018 z"
     id="path13" /><path
     style="fill:#b3b3b3;stroke-width:0.999998"
     d="m 38.948878,56.789308 c 0,-0.0053 0.104513,-0.167703 0.193605,-0.300867 0.873171,-1.305115 1.938459,-2.381028 3.20106,-3.232987 0.974732,-0.657715 2.072097,-1.174206 3.248272,-1.528846 0.139117,-0.04195 0.364329,-0.1057 0.44056,-0.124715 0.02051,-0.0051 0.03729,-0.01163 0.03729,-0.01448 0,-0.0028 0.0022,-0.0038 0.0049,-0.0021 0.0027,0.0017 0.08154,-0.01572 0.175172,-0.03866 0.21413,-0.05245 0.393373,-0.09207 0.615398,-0.136014 0.09571,-0.01894 0.174797,-0.03627 0.175753,-0.03849 9.55e-4,-0.0022 0.0051,-0.0028 0.0092,-0.0012 0.0041,0.0016 0.02839,-0.001 0.05394,-0.0058 0.02555,-0.0048 0.04937,-0.0087 0.05293,-0.0087 0.01255,0 0.0063,0.01617 -0.01148,0.02949 -0.07035,0.05284 -0.281863,0.116847 -0.532268,0.161089 -0.0635,0.01122 -0.163928,0.02995 -0.223176,0.04162 -0.951902,0.187488 -2.597157,0.868411 -3.610112,1.494121 -0.200129,0.123621 -0.484695,0.320731 -0.720917,0.499356 -1.109446,0.838935 -2.124628,1.929274 -2.936208,3.153586 l -0.03754,0.05662 h -0.06821 c -0.03752,0 -0.06821,-0.0013 -0.06821,-0.003 z"
     id="path14" /><path
     style="fill:#b3b3b3;stroke-width:1"
     d="m 39.451801,56.049805 c 0.26133,-0.355726 0.527625,-0.681654 0.811451,-0.993164 0.179749,-0.197281 0.433868,-0.456309 0.611748,-0.623565 0.923088,-0.867954 1.94282,-1.556738 3.091797,-2.088372 0.635385,-0.293994 1.295132,-0.532355 2.009515,-0.726021 0.04713,-0.01278 0.08756,-0.02471 0.08984,-0.02653 0.0023,-0.0018 0.02261,-0.0072 0.04517,-0.01192 0.02256,-0.0047 0.103418,-0.0235 0.179688,-0.0417 0.231084,-0.05512 0.310194,-0.07255 0.548828,-0.120981 0.07949,-0.01613 0.158395,-0.03275 0.175341,-0.03692 0.01694,-0.0042 0.03563,-0.0076 0.04152,-0.0076 0.0059,0 0.0307,-0.0035 0.05513,-0.0078 0.05315,-0.0093 0.05028,-0.0092 0.05028,-0.0024 0,0.009 -0.02576,0.02882 -0.05949,0.04578 -0.101359,0.05096 -0.272498,0.09749 -0.530352,0.144196 -0.380791,0.06897 -0.630041,0.134203 -1.058594,0.277059 -1.032764,0.344265 -2.210161,0.897803 -2.927735,1.376436 -1.074457,0.716681 -2.080423,1.670973 -2.929687,2.779196 l -0.06641,0.08666 -0.07727,3.9e-5 -0.07727,3.9e-5 z"
     id="path15" /><path
     style="fill:#b3b3b3;stroke-width:1"
     d="m 39.444053,56.05957 c 0.005,-0.007 0.03989,-0.054 0.0776,-0.104492 0.682952,-0.914463 1.485792,-1.718595 2.380696,-2.384526 0.856929,-0.637673 1.78166,-1.144632 2.8125,-1.541878 0.387905,-0.149484 0.767894,-0.273624 1.234375,-0.403263 0.05801,-0.01612 0.113379,-0.0319 0.123047,-0.03507 0.0097,-0.0032 0.05273,-0.01373 0.0957,-0.02346 0.04297,-0.0097 0.122949,-0.02839 0.177734,-0.04145 0.170872,-0.04075 0.272472,-0.06304 0.464844,-0.101972 0.06338,-0.01283 0.143359,-0.02928 0.177734,-0.03655 0.03437,-0.0073 0.08272,-0.01616 0.107422,-0.01974 0.02471,-0.0036 0.04976,-0.0075 0.05566,-0.0086 0.01542,-0.003 0.014,0.0069 -0.0031,0.02198 -0.05656,0.04966 -0.260191,0.113448 -0.513061,0.160712 -0.04641,0.0087 -0.122175,0.02284 -0.168366,0.03147 -0.162384,0.03036 -0.360136,0.07705 -0.527344,0.124523 -0.992435,0.281765 -2.32551,0.866782 -3.171875,1.39197 -0.241152,0.149641 -0.586007,0.39341 -0.857908,0.606435 -0.828273,0.648922 -1.599619,1.434085 -2.264831,2.305402 l -0.05438,0.07123 h -0.07772 -0.07772 z"
     id="path16" /><path
     style="fill:#b3b3b3;stroke-width:1"
     d="m 39.286085,56.067383 c 0.0021,-0.0027 0.02642,-0.03565 0.05403,-0.07324 0.53198,-0.724607 1.170905,-1.42292 1.831769,-2.002031 1.699313,-1.489096 3.754835,-2.416333 6.166012,-2.781461 0.107099,-0.01622 0.341504,-0.04845 0.397461,-0.05465 l 0.02441,-0.0027 v 0.05111 0.05111 l -0.0127,0.0021 c -0.0841,0.01421 -0.293146,0.03853 -0.421679,0.04905 -0.06669,0.0055 -0.116641,0.0155 -0.142667,0.02869 -0.02379,0.01205 -0.02809,0.01307 -0.16124,0.03804 -1.071517,0.200945 -2.058293,0.507889 -2.984375,0.928313 -0.288652,0.131043 -0.63448,0.306203 -0.90039,0.456044 -1.183574,0.666948 -2.209441,1.50719 -3.09786,2.537321 -0.183926,0.213263 -0.366236,0.441163 -0.544384,0.680516 l -0.07193,0.09665 h -0.07015 c -0.05556,0 -0.06935,-0.001 -0.06631,-0.0049 z"
     id="path17" /><path
     style="fill:#b3b3b3;stroke-width:1"
     d="m 52.878906,51.530575 c -0.252795,-0.04633 -0.517883,-0.08732 -0.890625,-0.137693 -0.528243,-0.07139 -1.286667,-0.146283 -1.880859,-0.185723 -0.85275,-0.0566 -1.426069,-0.05491 -1.607062,0.0047 -0.02671,0.0088 -0.03464,0.01356 -0.05114,0.03065 -0.03521,0.03648 -0.0834,0.054 -0.171875,0.06249 -0.03223,0.0031 -0.09551,0.0102 -0.140625,0.01579 -0.07538,0.0093 -0.08947,0.01 -0.173828,0.0076 -0.05049,-0.0014 -0.123438,-0.0051 -0.16211,-0.0083 -0.125788,-0.01029 -0.178531,-0.01383 -0.248047,-0.01666 l -0.06836,-0.0028 0.07617,-0.01111 c 0.501611,-0.07317 1.044334,-0.124473 1.576172,-0.149006 0.237073,-0.01094 0.349794,-0.01389 0.621093,-0.01627 0.971177,-0.0085 1.888532,0.07096 2.806641,0.24321 0.163764,0.03072 0.40014,0.08006 0.40451,0.08443 0.0011,0.0011 0.0015,0.02292 8.88e-4,0.0485 l -0.0011,0.04651 z"
     id="path18" /><path
     style="fill:#b3b3b3;stroke-width:1"
     d="m 52.916016,51.435212 c -0.07507,-0.01717 -0.306136,-0.06347 -0.425782,-0.08532 -1.119111,-0.204358 -2.274609,-0.272026 -3.505859,-0.20531 -0.05801,0.0031 -0.116895,0.0068 -0.130859,0.008 l -0.02539,0.0023 0.0012,-0.04913 c 6.6e-4,-0.02702 0.0024,-0.04917 0.0039,-0.04921 0.0015,-4.1e-5 0.03302,-0.0018 0.07007,-0.0038 0.297808,-0.01653 0.774592,-0.02479 1.130161,-0.01959 0.138431,0.002 0.273665,0.0047 0.30052,0.0058 0.02686,0.0012 0.09541,0.0039 0.152344,0.0061 0.719798,0.02749 1.457466,0.10762 2.134803,0.231904 0.113195,0.02077 0.328749,0.06302 0.342736,0.06718 0.0061,0.0018 0.0068,0.0078 0.0068,0.05255 0,0.02778 -0.0013,0.05032 -0.0029,0.05007 -0.0016,-2.44e-4 -0.0249,-0.0055 -0.05176,-0.01161 z"
     id="path19" /><path
     style="fill:#b3b3b3;stroke-width:1"
     d="m 57.408203,53.41044 c -0.102287,-0.07514 -0.342919,-0.239253 -0.48919,-0.333641 -1.027369,-0.662954 -2.171471,-1.166596 -3.395576,-1.494756 -0.147452,-0.03953 -0.53668,-0.134777 -0.550764,-0.134777 -0.0011,0 -0.002,-0.02289 -0.002,-0.05086 0,-0.05071 2.5e-5,-0.05085 0.0088,-0.04891 0.0048,0.0011 0.0501,0.01092 0.100586,0.02189 1.470594,0.319374 2.824995,0.884592 4.019531,1.677431 0.150283,0.09975 0.323062,0.218738 0.337002,0.232093 0.0062,0.006 0.0068,0.01409 0.0059,0.08127 l -0.0011,0.07464 z"
     id="path20" /><path
     style="fill:#b3b3b3;stroke-width:1"
     d="m 57.348183,53.517198 c -1.03603,-0.741345 -2.204357,-1.332823 -3.369667,-1.70593 -0.34604,-0.110794 -0.635671,-0.18849 -0.907227,-0.24337 l -0.100586,-0.02033 v -0.0482 c 0,-0.02651 8.87e-4,-0.0482 0.002,-0.0482 0.0011,0 0.0481,0.01065 0.104492,0.02366 1.580017,0.364682 3.016021,1.003736 4.281233,1.905245 l 0.08496,0.06054 v 0.07168 c 0,0.03943 -4.39e-4,0.07166 -9.76e-4,0.07164 -5.37e-4,-2.4e-5 -0.04293,-0.03006 -0.0942,-0.06675 z"
     id="path21" /><path
     style="fill:#b3b3b3;stroke-width:1"
     d="m 60.845272,57.270508 c -0.290243,-0.501172 -0.547486,-0.893841 -0.863035,-1.317383 -0.488896,-0.656214 -1.046139,-1.265008 -1.647564,-1.79998 -0.260934,-0.232102 -0.535847,-0.455121 -0.818492,-0.663989 l -0.07282,-0.05381 v -0.0764 -0.0764 l 0.02051,0.01477 c 0.07014,0.05051 0.307554,0.229664 0.379883,0.286661 0.671354,0.529043 1.281638,1.128514 1.869069,1.835955 0.453616,0.546287 0.879077,1.156284 1.231393,1.765483 0.028,0.04842 0.05435,0.09374 0.05855,0.100728 l 0.0076,0.0127 h -0.07436 -0.07437 z"
     id="path22" /><path
     style="fill:#b3b3b3;stroke-width:1"
     d="m 60.664204,57.264648 c -0.07894,-0.142682 -0.235642,-0.410503 -0.335405,-0.573242 -0.300177,-0.489662 -0.57954,-0.888793 -0.851669,-1.216797 -0.536896,-0.647133 -1.204707,-1.27374 -1.934987,-1.815599 l -0.09848,-0.07307 -1.5e-4,-0.07129 c -8.3e-5,-0.03921 8.69e-4,-0.07129 0.0021,-0.07129 0.004,0 0.242041,0.179381 0.339027,0.255431 0.882453,0.691952 1.67281,1.522279 2.346599,2.465272 0.242912,0.339966 0.467328,0.688912 0.690227,1.073243 l 0.03568,0.06152 h -0.08702 -0.08702 z"
     id="path23" /><path
     style="fill:#b3b3b3;stroke-width:1"
     d="m 62.961355,65.723633 c -0.03056,-1.631502 -0.180842,-2.977469 -0.475502,-4.258789 -0.05037,-0.219011 -0.154165,-0.623219 -0.192348,-0.749024 l -0.0056,-0.01855 h 0.05404 c 0.04806,0 0.05428,7.56e-4 0.05615,0.0068 0.0012,0.0038 0.01632,0.06045 0.03368,0.125976 0.350965,1.324405 0.560576,2.756012 0.630565,4.306641 0.01056,0.234065 0.02166,0.583554 0.02166,0.682617 l 3e-6,0.0459 h -0.05999 -0.05999 z"
     id="path24" /><path
     style="fill:#b3b3b3;stroke-width:1"
     d="m 62.927734,65.863711 c 0,-8.38e-4 -0.0034,-0.01822 -0.0076,-0.03864 -0.06034,-0.293233 -0.116284,-0.833785 -0.152514,-1.473512 -0.03965,-0.700163 -0.126859,-1.473573 -0.250396,-2.220703 -0.0926,-0.560055 -0.174489,-0.918688 -0.310457,-1.35973 -0.01165,-0.03779 -0.02118,-0.06993 -0.02118,-0.0714 0,-0.0015 0.0224,-0.0022 0.04978,-0.0016 l 0.04978,0.0011 0.02813,0.101562 c 0.01547,0.05586 0.04175,0.153418 0.05839,0.216797 0.01664,0.06338 0.03124,0.116113 0.03244,0.117188 0.0012,0.0011 0.0027,0.0081 0.0033,0.01563 6.11e-4,0.0075 0.0026,0.0142 0.0045,0.01483 0.0018,6.4e-4 0.0025,0.0046 0.0014,0.0088 -0.0011,0.0042 -1.96e-4,0.0076 0.002,0.0076 0.0022,0 0.0031,0.0035 0.002,0.0078 -0.0011,0.0043 -2.44e-4,0.0078 0.002,0.0078 0.0022,0 0.0031,0.0035 0.002,0.0078 -0.0011,0.0043 -2.45e-4,0.0078 0.002,0.0078 0.0022,0 0.0031,0.0035 0.002,0.0078 -0.0012,0.0045 -1.2e-4,0.0078 0.0025,0.0078 0.0025,0 0.0036,0.0016 0.0024,0.0036 -0.003,0.0049 0.01023,0.05892 0.01445,0.05892 0.0019,0 0.0023,0.0017 9.93e-4,0.0039 -0.0013,0.0021 0.0099,0.05618 0.02493,0.120118 0.205126,0.873046 0.344369,1.806681 0.420193,2.817424 0.0125,0.166594 0.02772,0.406808 0.03395,0.535892 0.0027,0.05519 0.0058,0.09976 0.007,0.09904 0.0012,-7.18e-4 0.0027,0.03663 0.0034,0.083 6.59e-4,0.04637 0.0019,0.0854 0.0027,0.08674 8.24e-4,0.0013 0.0025,0.03836 0.0036,0.08228 0.0012,0.04392 0.0039,0.130827 0.0061,0.193132 0.0048,0.139676 0.01177,0.43565 0.01178,0.50293 l 2e-6,0.0498 h -0.01563 c -0.0086,0 -0.01563,-6.85e-4 -0.01563,-0.0015 z"
     id="path25" /><path
     style="fill:#b3b3b3;stroke-width:1"
     d="m 62.729913,69.758789 c 0.01227,-0.06875 0.06325,-0.465708 0.08616,-0.670898 0.08833,-0.791251 0.133837,-1.549381 0.146985,-2.448554 0.004,-0.271481 0.0046,-0.287805 0.01223,-0.3125 0.0095,-0.0308 0.02635,-0.06533 0.03959,-0.08114 0.0189,-0.02256 0.0462,-0.06842 0.0556,-0.09339 0.01803,-0.04791 0.0098,-0.07505 -0.02607,-0.08569 -0.01123,-0.0033 -0.02461,-0.0061 -0.02974,-0.0061 -0.01647,0 -0.02473,-0.0078 -0.03839,-0.03632 l -0.01338,-0.02792 v -0.06554 -0.06554 h 0.06013 0.06013 l 0.0029,0.06543 c 0.0038,0.0867 -4.6e-4,0.912105 -0.0056,1.081055 -0.02425,0.794361 -0.06577,1.403266 -0.141296,2.072265 -0.02208,0.195591 -0.06779,0.552093 -0.08189,0.638672 -0.0021,0.01289 -0.0048,0.02915 -0.0059,0.03613 l -0.0021,0.0127 h -0.0608 -0.06081 z"
     id="path26" /><path
     style="fill:#b3b3b3;stroke-width:1"
     d="m 62.734743,69.740765 c 0.02203,-0.138453 0.07736,-0.590672 0.104977,-0.857953 0.07319,-0.708472 0.108022,-1.328909 0.125096,-2.228515 0.0045,-0.238914 0.0068,-0.30328 0.01152,-0.321032 0.0082,-0.03104 0.02616,-0.06743 0.04695,-0.09498 0.0097,-0.01289 0.02596,-0.03973 0.03608,-0.05964 0.01474,-0.029 0.01871,-0.04109 0.01996,-0.06074 0.0014,-0.02189 4.78e-4,-0.02582 -0.0085,-0.0365 -0.0067,-0.008 -0.01627,-0.01349 -0.02873,-0.01655 -0.04874,-0.01198 -0.0483,-0.01168 -0.06401,-0.04312 l -0.01451,-0.02906 -7.1e-5,-0.152585 c -9.2e-5,-0.196777 -0.0081,-0.493696 -0.02219,-0.82446 -0.0073,-0.172166 -0.01668,-0.355842 -0.0197,-0.387695 l -0.0023,-0.02441 h 0.05482 0.05482 l 0.0021,0.0127 c 0.0011,0.007 0.0056,0.07685 0.01001,0.155273 0.0044,0.07842 0.0087,0.150489 0.0097,0.160157 9.67e-4,0.0097 0.0019,0.02725 0.002,0.03906 1.23e-4,0.01182 0.0026,0.06719 0.0055,0.123047 0.0029,0.05586 0.0065,0.136719 0.0079,0.179687 0.0014,0.04297 0.0041,0.115918 0.006,0.16211 0.0019,0.04619 0.0044,0.140234 0.0057,0.208984 0.0013,0.06875 0.0035,0.143457 0.0049,0.166016 0.0014,0.02256 0.0024,0.04277 0.0022,0.04492 -2.51e-4,0.0021 -0.0017,0.26582 -0.0031,0.585937 -0.0015,0.320117 -0.0034,0.604004 -0.0043,0.63086 -9.19e-4,0.02685 -0.0042,0.110351 -0.0072,0.185546 -0.003,0.0752 -0.0065,0.167956 -0.0078,0.206135 -0.0012,0.03818 -0.0029,0.07158 -0.0037,0.07422 -8.19e-4,0.0026 -0.0026,0.03381 -0.0039,0.06926 -0.0013,0.03545 -0.0059,0.125098 -0.0102,0.199219 -0.0043,0.07412 -0.0088,0.154101 -0.01,0.177734 -0.0043,0.0833 -0.02536,0.35925 -0.04078,0.534509 -0.0064,0.07269 -0.01131,0.134215 -0.01092,0.136719 3.92e-4,0.0025 -2.64e-4,0.0072 -0.0015,0.01041 -0.0025,0.0068 -0.01958,0.18402 -0.01825,0.189603 4.93e-4,0.0021 -1.4e-4,0.0064 -0.0014,0.0096 -0.0026,0.0065 -0.01156,0.09431 -0.01025,0.09995 4.59e-4,0.002 -1.64e-4,0.0062 -0.0014,0.0094 -0.0012,0.0032 -0.0069,0.04893 -0.01262,0.101563 -0.0057,0.05264 -0.01998,0.172487 -0.03169,0.266334 -0.01171,0.09385 -0.02097,0.17207 -0.02058,0.173828 3.9e-4,0.0018 -3.4e-4,0.0058 -0.0016,0.0091 -0.0026,0.0066 -0.01122,0.07186 -0.01011,0.07684 3.98e-4,0.0018 -2.4e-4,0.0059 -0.0014,0.0091 -0.0035,0.0095 -0.02035,0.129504 -0.02047,0.145508 l -1.12e-4,0.01465 h -0.06085 -0.06085 z"
     id="path27" /><path
     style="fill:#b3b3b3;stroke-width:1"
     d="m 62.943398,65.926758 c -0.0072,-0.02847 -0.01383,-0.05396 -0.01478,-0.05664 -0.0012,-0.0034 0.0032,-0.0049 0.01432,-0.0049 h 0.01604 v 0.05664 c 0,0.03115 -5.7e-4,0.05664 -0.0013,0.05664 -6.97e-4,0 -0.0071,-0.02329 -0.01432,-0.05176 z"
     id="path28" /><path
     style="fill:#b3b3b3;stroke-width:1"
     d="m 62.624665,69.756836 c 0.0044,-0.02795 0.02555,-0.194849 0.03726,-0.293945 0.04589,-0.388463 0.07741,-0.765932 0.101771,-1.21875 0.04397,-0.81727 0.108895,-1.459258 0.182128,-1.800782 0.0076,-0.03545 0.01455,-0.06519 0.01544,-0.06608 0.0015,-0.0016 -0.0019,0.31144 -0.0054,0.493817 -0.0032,0.163734 -0.0079,0.320383 -0.01573,0.521484 -10e-4,0.02686 -0.0024,0.06822 -0.003,0.09192 -6.25e-4,0.0237 -0.002,0.04567 -0.003,0.04883 -10e-4,0.0032 -0.0029,0.03474 -0.0042,0.07019 -0.0099,0.265024 -0.04664,0.777958 -0.08084,1.128906 -0.0066,0.06768 -0.01224,0.134899 -0.01254,0.149384 -3.05e-4,0.01449 -0.0016,0.02635 -0.0028,0.02637 -0.0035,4.5e-5 -0.01267,0.100246 -0.0096,0.10514 0.0014,0.0023 5.97e-4,0.0043 -0.0019,0.0043 -0.003,0 -0.004,0.006 -0.0031,0.01758 7.69e-4,0.0097 3.83e-4,0.01758 -8.58e-4,0.01758 -0.003,0 -0.01258,0.09395 -0.0098,0.09671 0.0012,0.0012 4.66e-4,0.0042 -0.0016,0.0068 -0.0021,0.0025 -0.0046,0.01763 -0.0055,0.03356 -9.52e-4,0.01593 -0.0028,0.03162 -0.004,0.03487 -0.0013,0.0032 -0.0027,0.01861 -0.0032,0.03414 -5.04e-4,0.01553 -0.0024,0.02825 -0.0041,0.02827 -0.0018,2e-5 -0.0029,0.0066 -0.0024,0.01469 4.51e-4,0.0081 -4.92e-4,0.01775 -0.0021,0.02155 -0.0016,0.0038 -0.0021,0.01131 -10e-4,0.01669 10e-4,0.0054 2.31e-4,0.01081 -0.0018,0.01205 -0.002,0.0012 -0.0033,0.0078 -0.0028,0.01456 4.44e-4,0.0068 -4.18e-4,0.01515 -0.0019,0.01864 -0.0015,0.0035 -0.0031,0.01797 -0.0035,0.03219 -4.12e-4,0.01422 -0.0023,0.02587 -0.0041,0.02589 -0.0018,2e-5 -0.0027,0.0071 -0.0019,0.01563 8.18e-4,0.0086 5.23e-4,0.01605 -6.55e-4,0.0166 -0.0012,5.55e-4 -0.01073,0.06429 -0.02123,0.141634 -0.0105,0.07734 -0.01989,0.143701 -0.02087,0.147461 -0.0016,0.0061 -0.0075,0.0068 -0.05246,0.0068 h -0.05067 z"
     id="path29" /><path
     style="fill:#b3b3b3;stroke-width:1"
     d="m 61.733608,73.610352 c 0.0094,-0.0228 0.06496,-0.167453 0.09333,-0.243165 0.393801,-1.051066 0.692924,-2.22086 0.875991,-3.425781 0.0098,-0.06445 0.01972,-0.129052 0.02205,-0.143554 l 0.0042,-0.02637 h 0.06054 0.06054 l -0.0023,0.01465 c -0.0012,0.0081 -0.0094,0.06123 -0.01803,0.118164 -0.190855,1.25294 -0.505692,2.470644 -0.914014,3.535156 -0.02184,0.05693 -0.04595,0.119776 -0.05357,0.139649 l -0.01387,0.03613 h -0.05848 c -0.04526,0 -0.05803,-0.0011 -0.05646,-0.0049 z"
     id="path30" /><path
     style="fill:#b3b3b3;stroke-width:1"
     d="m 61.599609,73.613196 c 0,-0.0011 0.01422,-0.03672 0.03159,-0.0791 0.382608,-0.933267 0.676641,-1.946111 0.868476,-2.991609 0.03806,-0.207448 0.08402,-0.489993 0.109507,-0.673345 0.0055,-0.03975 0.01098,-0.07798 0.01213,-0.08496 l 0.0021,-0.0127 h 0.0506 c 0.02783,0 0.0506,0.0011 0.0506,0.0024 0,0.0067 -0.0459,0.300296 -0.06283,0.401932 -0.07303,0.438293 -0.164054,0.890618 -0.255434,1.269383 -0.0098,0.04074 -0.017,0.07633 -0.01594,0.0791 0.0011,0.0028 2.4e-5,0.005 -0.0023,0.005 -0.0023,0 -0.0033,0.0035 -0.0022,0.0078 0.0011,0.0043 4.5e-4,0.0078 -0.0015,0.0078 -0.0019,0 -0.0035,0.0022 -0.0035,0.0049 -4e-6,0.0075 -0.0776,0.307592 -0.11113,0.429831 -0.01638,0.0597 -0.02882,0.110085 -0.02766,0.111971 0.0012,0.0019 5.78e-4,0.004 -0.0013,0.0047 -0.0045,0.0017 -0.04043,0.127645 -0.03771,0.132046 0.0011,0.0019 4.95e-4,0.004 -0.0014,0.0047 -0.0019,7.2e-4 -0.01174,0.02944 -0.02179,0.06381 -0.116564,0.398724 -0.279812,0.878083 -0.426026,1.250977 l -0.02642,0.06738 h -0.06388 c -0.03514,0 -0.06388,-9.17e-4 -0.06388,-0.002 z"
     id="path31" /><path
     style="fill:#b3b3b3;stroke-width:1"
     d="m 59.035545,77.731445 c 0.121472,-0.12855 0.159803,-0.169423 0.224459,-0.23934 0.669824,-0.724337 1.229433,-1.437771 1.564924,-1.995092 0.09859,-0.163783 0.240923,-0.42722 0.376162,-0.696232 0.187902,-0.373766 0.355157,-0.745526 0.508772,-1.130859 l 0.02102,-0.05273 0.05741,-0.0011 c 0.03295,-6.21e-4 0.05741,4.43e-4 0.05741,0.0025 0,0.0056 -0.09972,0.248921 -0.151527,0.369677 -0.24302,0.566484 -0.516867,1.106532 -0.81806,1.613281 -0.452154,0.760738 -0.951,1.435458 -1.551413,2.098384 l -0.04345,0.04798 -0.130696,6.2e-5 -0.130696,6.2e-5 z"
     id="path32" /><path
     style="fill:#b3b3b3;stroke-width:1"
     d="m 58.98713,77.663086 c 0.821907,-0.878618 1.503511,-1.833658 2.069288,-2.899414 0.116612,-0.219662 0.273743,-0.540952 0.381635,-0.780337 0.04624,-0.102602 0.150403,-0.343426 0.155408,-0.359312 0.0027,-0.0087 0.0038,-0.0088 0.06867,-0.0088 h 0.0659 l -0.03834,0.09473 c -0.08165,0.201749 -0.168807,0.405125 -0.253191,0.59082 -0.19097,0.420249 -0.451847,0.924816 -0.631142,1.220703 -0.35879,0.592105 -1.010262,1.406196 -1.72631,2.157227 l -0.06611,0.06934 h -0.05264 -0.05264 z"
     id="path33" /><path
     style="fill:#b3b3b3;stroke-width:1"
     d="m 53.970703,80.981675 v -0.06377 l 0.09082,-0.02686 c 0.536148,-0.158576 1.089287,-0.362266 1.579102,-0.581494 0.356752,-0.159674 0.77841,-0.37968 1.037109,-0.541126 0.456883,-0.285126 1.009251,-0.729981 1.623047,-1.307136 0.152313,-0.143219 0.429264,-0.415414 0.570313,-0.560517 l 0.148437,-0.152704 0.130713,-8e-6 0.130712,-8e-6 -0.01762,0.01856 c -0.0097,0.0102 -0.0439,0.04656 -0.07603,0.08078 -0.363577,0.387401 -0.765746,0.761765 -1.175588,1.094309 -1.151806,0.93457 -2.475607,1.631486 -3.935547,2.071872 -0.05049,0.01523 -0.09487,0.02863 -0.09863,0.02979 -0.0063,0.0019 -0.0068,-0.0027 -0.0068,-0.06168 z"
     id="path34" /><path
     style="fill:#b3b3b3;stroke-width:1"
     d="m 53.970703,80.870971 c 0,-0.02945 0.0014,-0.04159 0.0049,-0.04274 0.0027,-8.78e-4 0.05322,-0.01661 0.112305,-0.03495 0.126656,-0.03932 0.348158,-0.11326 0.474609,-0.158423 0.986741,-0.352426 1.817774,-0.781595 2.59375,-1.339485 0.532361,-0.382743 1.151578,-0.926295 1.690414,-1.483855 l 0.06135,-0.06348 h 0.05088 c 0.02798,0 0.05088,0.0014 0.05088,0.0032 0,0.0017 -0.09114,0.09534 -0.202545,0.208008 -0.435855,0.440798 -0.828407,0.804739 -1.218885,1.130047 -0.408085,0.339978 -0.748759,0.585058 -1.069121,0.769125 -0.651111,0.374102 -1.398478,0.695135 -2.235661,0.960334 -0.12051,0.03817 -0.303302,0.09338 -0.309189,0.09338 -0.002,0 -0.0037,-0.01815 -0.0037,-0.04114 z"
     id="path35" /><path
     style="fill:#b3b3b3;stroke-width:1"
     d="m 49.289062,81.536791 c -0.634794,-0.01416 -1.221315,-0.07039 -1.890625,-0.181263 -0.547131,-0.09063 -1.08308,-0.20949 -1.579101,-0.350203 l -0.05957,-0.0169 v -0.04233 c 0,-0.03848 6.21e-4,-0.04214 0.0068,-0.0403 0.47819,0.142135 0.923074,0.255026 1.194335,0.303068 0.386961,0.06853 0.907196,0.114868 1.535157,0.136729 0.472111,0.01644 1.125062,0.01492 1.669922,-0.0039 1.34563,-0.04644 2.571041,-0.183355 3.302734,-0.369022 0.108771,-0.0276 0.462184,-0.128188 0.496056,-0.141186 0.005,-0.0019 0.0059,0.004 0.0059,0.04032 v 0.04258 l -0.106445,0.03009 c -1.47948,0.418209 -3.081595,0.625614 -4.575196,0.592292 z"
     id="path36" /><path
     style="fill:#b3b3b3;stroke-width:1"
     d="m 49.419922,81.603221 c -1.143835,-0.02292 -2.22317,-0.152102 -3.228516,-0.386412 -0.09155,-0.02134 -0.341195,-0.08355 -0.396484,-0.0988 l -0.0332,-0.0092 -0.0011,-0.05735 c -5.95e-4,-0.03154 3.06e-4,-0.05735 0.002,-0.05735 0.0017,0 0.0347,0.0089 0.07335,0.01978 0.681051,0.191771 1.426231,0.340921 2.164014,0.433133 0.847995,0.105988 1.744809,0.124875 2.689453,0.05664 1.066994,-0.07707 2.156743,-0.267316 3.166324,-0.552767 0.06032,-0.01706 0.110862,-0.03101 0.112304,-0.03101 0.0014,0 0.0026,0.02802 0.0026,0.06226 v 0.06226 l -0.03223,0.0098 c -0.180582,0.05506 -0.541462,0.146861 -0.815293,0.20739 -1.143483,0.252759 -2.391268,0.367843 -3.703262,0.341555 z"
     id="path37" /><path
     style="fill:#b3b3b3;stroke-width:1"
     d="m 45.732422,81.101655 c -0.0097,-0.0029 -0.05977,-0.01699 -0.111328,-0.03138 -1.118667,-0.312117 -2.193874,-0.78693 -3.129264,-1.381886 l -0.09925,-0.06313 v -0.08104 -0.08104 l 0.05595,0.03657 c 0.273915,0.17902 0.620589,0.381362 0.944045,0.551005 0.704021,0.369239 1.517291,0.694941 2.307607,0.924159 l 0.05956,0.01727 1.2e-5,0.05762 c 1.2e-5,0.06362 0.0017,0.06047 -0.02733,0.05185 z"
     id="path38" /><path
     style="fill:#b3b3b3;stroke-width:1"
     d="m 45.716797,80.976053 c -0.298137,-0.08743 -0.679661,-0.214291 -0.942815,-0.313501 -0.02333,-0.0088 -0.04399,-0.01503 -0.0459,-0.01385 -0.0019,0.0012 -0.0035,5.24e-4 -0.0035,-0.0015 0,-0.002 -0.0083,-0.0067 -0.01855,-0.01053 -0.115818,-0.04324 -0.350101,-0.138572 -0.507734,-0.2066 -0.606316,-0.26166 -1.216759,-0.587773 -1.744252,-0.931822 l -0.06149,-0.04011 v -0.06648 -0.06648 l 0.0088,0.0061 c 0.0048,0.0033 0.05098,0.03375 0.102539,0.06758 0.548442,0.359848 1.162783,0.690979 1.791016,0.96536 0.431312,0.188376 0.900674,0.363433 1.351562,0.504088 l 0.111328,0.03473 0.0011,0.04164 c 8.52e-4,0.03197 -5.5e-5,0.04158 -0.0039,0.04137 -0.0028,-1.48e-4 -0.01996,-0.0047 -0.03822,-0.01001 z"
     id="path39" /><path
     style="fill:#b3b3b3;stroke-width:1"
     d="m 42.251953,79.531994 c -0.639622,-0.43023 -1.192618,-0.886083 -1.742208,-1.436158 -0.343967,-0.344271 -0.6019,-0.635048 -0.902761,-1.017711 -0.467282,-0.594333 -0.912093,-1.280847 -1.268647,-1.958008 l -0.0046,-0.0088 0.06557,9.6e-5 0.06557,9.5e-5 0.05253,0.09658 c 0.109122,0.200631 0.251541,0.444226 0.37775,0.646109 0.543171,0.868849 1.154277,1.624808 1.866988,2.309532 0.403551,0.387704 0.837766,0.746266 1.304604,1.077304 0.08035,0.05698 0.251919,0.174395 0.297695,0.203738 l 0.02817,0.01805 v 0.0801 c 0,0.04406 -0.0013,0.08001 -0.0029,0.0799 -0.0016,-1.14e-4 -0.06357,-0.04099 -0.137695,-0.09085 z"
     id="path40" /><path
     style="fill:#b3b3b3;stroke-width:1"
     d="m 42.367187,79.44258 c -0.01289,-0.0088 -0.07002,-0.04768 -0.126953,-0.08638 -1.463067,-0.994662 -2.672886,-2.316791 -3.596539,-3.930415 -0.06101,-0.106584 -0.172992,-0.308951 -0.172992,-0.31262 0,-10e-4 0.02528,-0.0018 0.05618,-0.0018 h 0.05618 l 0.03046,0.05566 c 0.286872,0.524325 0.680323,1.124321 1.050875,1.602539 0.0867,0.111886 0.104905,0.134896 0.17904,0.226246 0.663082,0.817062 1.42908,1.537855 2.271797,2.137727 0.09166,0.06524 0.228234,0.159696 0.259293,0.179319 l 0.01804,0.0114 v 0.06738 c 4e-6,0.03706 -4.32e-4,0.06729 -9.69e-4,0.06718 -5.38e-4,-1.09e-4 -0.01152,-0.0074 -0.02442,-0.01621 z"
     id="path41" /><path
     style="fill:#b3b3b3;stroke-width:1"
     d="m 38.315293,75.075195 c -0.07525,-0.140403 -0.207406,-0.408712 -0.30159,-0.612304 -0.07966,-0.17219 -0.218781,-0.490388 -0.218781,-0.500384 0,-0.0019 0.02065,-0.0035 0.0459,-0.0036 0.05203,-6e-5 0.06344,-0.0021 0.06356,-0.01114 4.8e-5,-0.0035 0.01913,0.03757 0.04241,0.09127 0.142755,0.329391 0.322679,0.705102 0.476878,0.995806 0.02157,0.04066 0.03922,0.0745 0.03922,0.07519 0,6.96e-4 -0.02885,0.0013 -0.06412,0.0013 h -0.06412 z"
     id="path42" /><path
     style="fill:#b3b3b3;stroke-width:1"
     d="M 38.422611,75.0244 C 38.274444,74.745337 38.065584,74.307599 37.93663,74.005859 l -0.0192,-0.04492 0.04682,-0.002 c 0.03374,-0.0014 0.0473,-0.0034 0.04852,-0.0071 9.36e-4,-0.0028 0.02938,0.05695 0.06321,0.132813 0.15546,0.348606 0.335127,0.714231 0.480954,0.978751 l 0.02638,0.04785 -0.05729,-1.6e-5 -0.05729,-1.5e-5 z"
     id="path43" /><path
     style="fill:#b3b3b3;stroke-width:1"
     d="m 38.329887,57.594727 c 0.01058,-0.01987 0.02682,-0.05029 0.03608,-0.06759 l 0.01684,-0.03146 0.01367,0.0031 c 0.0075,0.0017 0.03988,0.0019 0.07192,5.74e-4 l 0.05825,-0.0025 -0.02266,0.0426 c -0.01246,0.02343 -0.02872,0.05359 -0.03612,0.06701 l -0.01346,0.02441 h -0.07188 -0.07188 z"
     id="path44" /><path
     style="fill:#b3b3b3;stroke-width:1"
     d="m 62.265419,60.606829 c -0.138392,-0.504983 -0.440127,-1.325763 -0.714868,-1.944588 -0.135218,-0.304563 -0.454635,-0.950913 -0.589506,-1.192883 -0.049,-0.08791 -0.0891,-0.161249 -0.0891,-0.162966 0,-0.0017 0.03107,-0.0031 0.06905,-0.003 l 0.06905,1.4e-4 0.118178,0.218069 c 0.429518,0.792568 0.808486,1.691121 1.084502,2.571408 0.0881,0.28097 0.172864,0.570396 0.172864,0.590236 0,0.0067 -0.02105,0.01191 -0.04799,0.01191 h -0.04799 z"
     id="path45" /><path
     style="fill:#b3b3b3;stroke-width:1"
     d="m 62.181226,60.681363 c -0.0026,-0.0076 -0.02043,-0.06353 -0.03953,-0.124296 -0.09027,-0.287224 -0.324483,-0.901106 -0.501241,-1.313801 -0.227182,-0.530421 -0.551923,-1.205098 -0.805471,-1.673429 -0.07689,-0.142032 -0.139807,-0.259721 -0.139807,-0.26153 0,-0.0018 0.0373,-0.0049 0.08289,-0.0069 0.04559,-0.002 0.08288,-7.2e-5 0.08286,0.0043 -1.4e-5,0.0044 0.03798,0.07645 0.08443,0.160204 0.04645,0.08376 0.144338,0.269126 0.217535,0.411929 0.0732,0.142802 0.137148,0.261308 0.142114,0.263346 0.005,0.002 0.0062,0.0083 0.0028,0.01381 -0.0034,0.0056 -0.0018,0.0101 0.0036,0.0101 0.0054,0 0.0099,0.0067 0.0099,0.01486 0,0.0082 0.03629,0.09145 0.08065,0.185063 0.113037,0.238555 0.259979,0.576137 0.3658,0.840382 0.0495,0.123617 0.09446,0.226426 0.0999,0.228464 0.0054,0.002 0.0074,0.0077 0.0044,0.01254 -0.0079,0.01271 0.01653,0.07767 0.02915,0.07767 0.0058,0 0.0079,0.0045 0.0045,0.0099 -0.0034,0.0054 0.0062,0.0425 0.02116,0.08235 0.102355,0.271931 0.348255,1.026362 0.348255,1.068458 0,0.01585 -0.0883,0.01268 -0.09389,-0.0034 z"
     id="path46" /><path
     style="fill:#b3b3b3;stroke-width:1"
     d=""
     id="path47" /><path
     style="fill:#b3b3b3;stroke-width:1"
     d="m 61.992426,60.123432 c -0.0012,-0.0019 -0.01692,-0.04281 -0.03494,-0.09082 -0.161386,-0.430018 -0.325217,-0.824611 -0.507387,-1.222065 -0.218944,-0.477685 -0.411492,-0.865198 -0.65895,-1.326172 -0.03921,-0.07305 -0.07621,-0.142042 -0.08221,-0.153322 -0.006,-0.01128 -0.0094,-0.02142 -0.0076,-0.02254 0.0058,-0.0036 0.15007,-0.0065 0.154648,-0.0031 0.0024,0.0018 0.01186,0.01815 0.02099,0.03641 0.0091,0.01826 0.03199,0.06133 0.05079,0.0957 0.06501,0.11887 0.120496,0.223474 0.22376,0.421875 0.103791,0.199415 0.135569,0.258552 0.148253,0.275894 0.01293,0.01767 -0.03698,-0.08549 -0.135368,-0.2798 -0.113122,-0.223416 -0.148842,-0.291605 -0.227137,-0.433594 -0.0308,-0.05586 -0.05715,-0.104639 -0.05856,-0.108398 -0.0024,-0.0063 0.0022,-0.0068 0.06397,-0.0068 h 0.06653 l 0.06629,0.12207 c 0.191273,0.352201 0.354434,0.679594 0.505665,1.014648 0.167267,0.370583 0.344032,0.812424 0.478202,1.195313 0.04784,0.136533 0.129396,0.382161 0.159199,0.479492 l 0.0027,0.0088 h -0.05056 -0.05056 l -0.02459,-0.07129 c -0.102051,-0.295889 -0.188921,-0.531239 -0.190446,-0.515966 -0.0014,0.01369 0.0068,0.03928 0.06356,0.198583 0.04366,0.1226 0.130977,0.37944 0.130977,0.385282 0,0.0045 -0.104392,0.0044 -0.107183,-1.31e-4 z m -0.09004,-0.604877 c -0.0015,-0.0038 -0.0081,-0.0209 -0.01461,-0.03809 -0.01387,-0.03653 -0.01863,-0.04339 -0.01863,-0.02687 0,0.0151 0.01071,0.04718 0.02038,0.06105 0.0083,0.01196 0.01718,0.01464 0.01286,0.0039 z m -0.06004,-0.155732 c -0.1398,-0.360839 -0.272968,-0.672435 -0.41549,-0.972198 -0.09688,-0.203763 -0.11783,-0.24506 -0.120583,-0.237686 -0.0017,0.0046 -2.73e-4,0.0093 0.0041,0.01308 0.0037,0.0032 0.01077,0.01729 0.01566,0.03125 0.0089,0.02539 0.03465,0.08276 0.109578,0.24414 0.09526,0.205177 0.20461,0.457132 0.30855,0.710938 0.08872,0.216652 0.119235,0.286376 0.123464,0.282147 9.97e-4,-9.98e-4 -0.01037,-0.03325 -0.02525,-0.07167 z"
     id="path48" /><path
     style="fill:#b3b3b3;stroke-width:1"
     d=""
     id="path49" /></svg>
